<svg class="svg-standalone-icon" width="100%"
            viewBox="211.68954376153135 115 126.62091247693729 126.62091247693726">
            <g data-paper-data="{&quot;fillRule&quot;:&quot;nonzero&quot;,&quot;fillRuleOriginal&quot;:&quot;nonzero&quot;,&quot;isIcon&quot;:true,&quot;iconStyle&quot;:&quot;standalone&quot;,&quot;selectedEffects&quot;:{&quot;container&quot;:&quot;circle_simple_filled&quot;,&quot;transformation&quot;:&quot;&quot;,&quot;pattern&quot;:&quot;&quot;},&quot;bounds&quot;:{&quot;x&quot;:211.68954376153135,&quot;y&quot;:115,&quot;width&quot;:126.62091247693729,&quot;height&quot;:126.62091247693726},&quot;widthRatioIconToContainer&quot;:0.8567913734632113,&quot;heightRatioIconToContainer&quot;:0.8770346347479131,&quot;relativeBoundsIconToContainer&quot;:{&quot;top&quot;:2.059802699217092e-8,&quot;left&quot;:-0.0185094766291536},&quot;iconType&quot;:&quot;initial&quot;,&quot;initialText&quot;:&quot;AX&quot;,&quot;rawInitialId&quot;:1087,&quot;blockLetter&quot;:&quot;O&quot;,&quot;monogramSpecial&quot;:&quot;emblem&quot;,&quot;suitableAsStandaloneIcon&quot;:true}"
                fill-rule="nonzero">
                <path
                    d="M211.68954,178.31046c0,-34.9654 28.34506,-63.31046 63.31046,-63.31046c34.9654,0 63.31046,28.34506 63.31046,63.31046c0,34.9654 -28.34506,63.31046 -63.31046,63.31046c-34.9654,0 -63.31046,-28.34506 -63.31046,-63.31046zM272.14676,122.78501c-3.45876,0.12353 -6.67047,0.49411 -9.88217,1.23528c-25.07601,5.31167 -43.85213,27.67008 -43.85213,54.35194c0,17.2938 8.02927,32.85822 20.5055,43.11097l7.04105,-7.04105c-5.55872,-4.32345 -10.12923,-9.88217 -13.21741,-16.30558l29.52299,-17.04675v51.51082c3.21171,0.74116 6.42341,1.11174 9.88217,1.23528zM262.26459,169.72533l-32.85822,18.89965c-0.74116,-3.33523 -1.11174,-6.794 -1.11174,-10.25275c0,-21.24667 14.45268,-39.03457 33.96997,-44.22272zM278.23047,188.99556v44.84035c3.33523,-0.12353 6.67047,-0.49411 9.88217,-1.23528v-39.40516l9.14101,-9.26454c8.02927,4.19992 14.69973,10.62333 19.02318,18.40555h-9.14101v9.88217h13.21741c2.59407,-3.21171 4.81756,-6.91752 6.54693,-10.74686c-4.32345,-9.38806 -11.24097,-17.41733 -19.76434,-23.09957c8.52337,-5.80577 15.44089,-13.83504 19.76434,-23.2231c-1.72938,-3.82934 -3.95287,-7.53515 -6.54693,-10.74686h-13.21741v9.88217h9.14101c-4.32345,7.78221 -10.99392,14.20562 -19.02318,18.40555l-9.14101,-9.26454v-39.40516c-3.21171,-0.74116 -6.54693,-1.11174 -9.88217,-1.23528v44.84035l10.74686,10.74686z"
                    data-paper-data="{&quot;isPathIcon&quot;:true}" style="fill: rgb(255, 255, 255);"></path>
            </g>
        </svg>